<svg width="60" height="60" viewBox="0 0 60 60" fill="none" xmlns="http://www.w3.org/2000/svg">
<rect width="60" height="60" rx="14" fill="url(#paint0_linear_2_391)"/>
<path d="M35.5616 14.0172C30.7443 14.1969 26.1655 15.7692 22.6864 18.4368C22.4966 18.5806 22.1682 18.8442 21.9565 19.0216C21.4894 19.4123 20.1683 20.7065 20.0394 20.9007C19.7717 21.3033 19.7377 21.6916 19.9323 22.0775C20.0248 22.2572 20.1829 22.425 20.3459 22.5113C20.4603 22.5736 20.4968 22.5808 20.6817 22.5784C21.5137 22.5736 22.8519 21.9936 25.5646 20.4716C26.3018 20.057 26.7129 19.8581 27.3406 19.616C29.0218 18.9593 30.9195 18.547 33.0654 18.3721C33.5666 18.3313 35.255 18.3313 35.7051 18.3721C37.3328 18.5183 38.4641 18.8155 39.4981 19.3619C40.1623 19.7143 40.5856 20.0786 40.953 20.6178C41.6148 21.5861 41.7851 22.7677 41.4323 23.9421C41.3423 24.2417 41.2352 24.4383 41.0771 24.5893C40.7851 24.8697 40.2742 24.9751 39.8703 24.8361C39.3764 24.6684 37.7683 24.3616 36.3742 24.1674C33.3257 23.7408 30.2845 23.6617 27.5912 23.9397C21.5356 24.5581 17.0103 26.8159 14.0786 30.6818C13.8207 31.0198 13.3463 31.7196 13.1541 32.0456C12.5872 32.9971 12.2223 34.0493 12.0569 35.2045C12.0009 35.5784 11.9814 36.6162 12.0204 37.0284C12.2831 39.8926 13.9692 42.3852 16.5578 43.7417C16.733 43.8328 16.9836 43.9646 17.1174 44.0342C18.1027 44.5495 19.689 44.8802 21.6427 44.9833C22.2412 45.0144 23.9272 45 24.4892 44.9569C27.0171 44.77 29.3162 44.3433 31.6543 43.6267C35.3767 42.4858 38.722 40.6523 41.3009 38.3419C42.0186 37.6971 42.8994 36.7792 43.493 36.053C46.0598 32.9156 47.5487 29.1 47.9161 24.7163C48.0159 23.5515 48.028 21.9193 47.9453 21.3249C47.6898 19.5105 46.9016 17.967 45.5926 16.7111C45.1985 16.3348 44.8895 16.088 44.4516 15.8004C43.8117 15.3809 43.2716 15.1293 42.3957 14.8417C40.481 14.2137 38.0797 13.9237 35.5616 14.0172ZM30.5838 28.8747C34.4497 29.0209 37.2184 29.807 37.7731 30.9191C38.014 31.4056 37.9118 32.2349 37.5055 33.057C36.5177 35.0631 33.5447 37.1746 30.0631 38.3395C28.8223 38.7565 28.0389 38.9171 26.3383 39.1064C23.7326 39.3988 21.6719 39.2886 20.1586 38.7733C18.9445 38.361 18.1344 37.6252 17.9032 36.7288C17.7719 36.2207 17.9665 35.1781 18.3606 34.2506C18.7718 33.2847 19.4749 32.314 20.2681 31.619C21.6913 30.3726 23.4504 29.5961 25.8638 29.1527C27.1533 28.9154 28.9099 28.8123 30.5838 28.8747Z" fill="white"/>
<defs>
<linearGradient id="paint0_linear_2_391" x1="30" y1="0" x2="30" y2="60" gradientUnits="userSpaceOnUse">
<stop stop-color="#D41B30"/>
<stop offset="1" stop-color="#E61329"/>
</linearGradient>
</defs>
</svg>
